<?xml version="1.0" encoding="utf-8"?>
<!-- Svg Vector Icons : http://www.onlinewebfonts.com/icon -->
<!DOCTYPE svg PUBLIC "-//W3C//DTD SVG 1.1//EN" "http://www.w3.org/Graphics/SVG/1.1/DTD/svg11.dtd">
<svg version="1.1" xmlns="http://www.w3.org/2000/svg" xmlns:xlink="http://www.w3.org/1999/xlink" x="0px" y="0px" viewBox="0 0 1000 1000" enable-background="new 0 0 1000 1000" xml:space="preserve">
<metadata> Svg Vector Icons : http://www.onlinewebfonts.com/icon </metadata>
<g><path d="M245.7,830V481.7H284v-43.1H88.7v39.3h38.2V830L245.7,830L245.7,830z M27.6,400.3h945.6c22.8-10,21.8-31.3,0.4-45.6c-21.4-14.2-474-341-474-341s-449.2,326.8-472,341C4.8,369,3.4,390.4,27.6,400.3L27.6,400.3z M499.6,175.1c37.8,0,68.4,30.6,68.4,68.4c0,37.8-30.6,68.4-68.4,68.4c-37.8,0-68.4-30.6-68.4-68.4C431.2,205.7,461.8,175.1,499.6,175.1L499.6,175.1z M51.2,908.1h898.5v-38.2H51.2V908.1L51.2,908.1z M12.2,986.3h976.5v-35.8H12.2V986.3L12.2,986.3z M559.8,830V479.3h38.2V441H402.8v36.8H441V830L559.8,830L559.8,830z M871.5,830V479.3h38.2V441H714.5v36.8h38.2V830L871.5,830L871.5,830z"/></g>
</svg>