<?xml version="1.0" encoding="utf-8"?>
<!-- Svg Vector Icons : http://www.onlinewebfonts.com/icon -->
<!DOCTYPE svg PUBLIC "-//W3C//DTD SVG 1.1//EN" "http://www.w3.org/Graphics/SVG/1.1/DTD/svg11.dtd">
<svg version="1.1" xmlns="http://www.w3.org/2000/svg" xmlns:xlink="http://www.w3.org/1999/xlink" x="0px" y="0px" viewBox="0 0 1000 1000" enable-background="new 0 0 1000 1000" xml:space="preserve">
<metadata> Svg Vector Icons : http://www.onlinewebfonts.com/icon </metadata>
<g><g><path d="M954.7,848.8V451.5l-407-170.9v-77.5h39.4v35.3h139.2V115.9h-70.6V80.6h-108v-0.3c0-19.4-16-35-35.3-35c-19.3,0-35.3,15.6-35.3,35v196.6L45.3,451.5v397.3H10v105.9h415.3V693.1h174.4v261.6H990V848.8H954.7z M246.7,693.1h95.5v93.5h-95.5V693.1z M95.2,693.1h97.5v93.5H95.2V693.1z M500,552.9c-37.8,0-68.6-30.7-68.6-68.6c0-37.9,30.7-68.5,68.6-68.5c37.9,0,68.6,30.7,68.6,68.5C568.6,522.2,537.9,552.9,500,552.9z M815.6,693.1h97.6v93.5h-97.6V693.1z M664.1,693.1h97.6v93.5h-97.6V693.1z"/></g><g></g><g></g><g></g><g></g><g></g><g></g><g></g><g></g><g></g><g></g><g></g><g></g><g></g><g></g><g></g></g>
</svg>